# xmcd
#
# Track frame offsets:
#	150
#	24809
#	51619
#	75283
#	101583
#	128459
#	152089
#	174146
#	198916
#	225407
#	252278
#	280562
#
# Disc length: 4041 seconds
#
# Revision: 1
# Processed by: cddbd v1.4PL0 Copyright (c) Steve Scherf et al.
# Submitted via: audiograbber 1.80
#
DISCID=810fc70c
DTITLE=Decca Ben - Classe Plus
DYEAR=1900
DGENRE=
TTITLE0=Ebele Pete
TTITLE1=Ndol`am
TTITLE2=Ses`a Tete
TTITLE3=Na Titi Ten
TTITLE4=Betesedi
TTITLE5=Nasom
TTITLE6=Lambo Te
TTITLE7=Esoukan
TTITLE8=Mon Amie
TTITLE9=Afed (2)
TTITLE10=Ladye
TTITLE11=O Nyol`a Bu
EXTD=
EXTT0=
EXTT1=
EXTT2=
EXTT3=
EXTT4=
EXTT5=
EXTT6=
EXTT7=
EXTT8=
EXTT9=
EXTT10=
EXTT11=
PLAYORDER=
